<mxfile host="Electron" agent="Mozilla/5.0 (Windows NT 10.0; Win64; x64) AppleWebKit/537.36 (KHTML, like Gecko) draw.io/27.0.2 Chrome/134.0.6998.205 Electron/35.3.0 Safari/537.36" version="27.0.2">
  <diagram name="Page-1" id="BlbYith8nppRAcovhXBP">
    <mxGraphModel dx="569" dy="696" grid="1" gridSize="10" guides="1" tooltips="1" connect="1" arrows="1" fold="1" page="1" pageScale="1" pageWidth="827" pageHeight="1169" math="0" shadow="0">
      <root>
        <mxCell id="0" />
        <mxCell id="1" parent="0" />
        <mxCell id="-FApzdVmVs2hX3Sz02v6-6" style="edgeStyle=orthogonalEdgeStyle;rounded=0;orthogonalLoop=1;jettySize=auto;html=1;exitX=0.5;exitY=1;exitDx=0;exitDy=0;entryX=0.5;entryY=0;entryDx=0;entryDy=0;" edge="1" parent="1" source="-FApzdVmVs2hX3Sz02v6-1" target="-FApzdVmVs2hX3Sz02v6-2">
          <mxGeometry relative="1" as="geometry" />
        </mxCell>
        <mxCell id="-FApzdVmVs2hX3Sz02v6-1" value="" style="ellipse;fillColor=strokeColor;html=1;" vertex="1" parent="1">
          <mxGeometry x="399" y="90" width="30" height="30" as="geometry" />
        </mxCell>
        <mxCell id="-FApzdVmVs2hX3Sz02v6-2" value="App Closed" style="html=1;align=center;verticalAlign=top;rounded=1;absoluteArcSize=1;arcSize=10;dashed=0;whiteSpace=wrap;" vertex="1" parent="1">
          <mxGeometry x="371" y="170" width="86" height="30" as="geometry" />
        </mxCell>
        <mxCell id="-FApzdVmVs2hX3Sz02v6-9" style="edgeStyle=orthogonalEdgeStyle;rounded=0;orthogonalLoop=1;jettySize=auto;html=1;exitX=1;exitY=0.5;exitDx=0;exitDy=0;entryX=0;entryY=0.5;entryDx=0;entryDy=0;" edge="1" parent="1" source="-FApzdVmVs2hX3Sz02v6-3" target="-FApzdVmVs2hX3Sz02v6-5">
          <mxGeometry relative="1" as="geometry" />
        </mxCell>
        <mxCell id="-FApzdVmVs2hX3Sz02v6-10" value="Kiosk/contactless" style="edgeLabel;html=1;align=center;verticalAlign=middle;resizable=0;points=[];" vertex="1" connectable="0" parent="-FApzdVmVs2hX3Sz02v6-9">
          <mxGeometry x="-0.0347" y="1" relative="1" as="geometry">
            <mxPoint as="offset" />
          </mxGeometry>
        </mxCell>
        <mxCell id="-FApzdVmVs2hX3Sz02v6-11" style="edgeStyle=orthogonalEdgeStyle;rounded=0;orthogonalLoop=1;jettySize=auto;html=1;exitX=0.5;exitY=1;exitDx=0;exitDy=0;entryX=0.5;entryY=0;entryDx=0;entryDy=0;" edge="1" parent="1" source="-FApzdVmVs2hX3Sz02v6-3" target="-FApzdVmVs2hX3Sz02v6-4">
          <mxGeometry relative="1" as="geometry" />
        </mxCell>
        <mxCell id="-FApzdVmVs2hX3Sz02v6-12" value="Accesses Payment" style="edgeLabel;html=1;align=center;verticalAlign=middle;resizable=0;points=[];" vertex="1" connectable="0" parent="-FApzdVmVs2hX3Sz02v6-11">
          <mxGeometry x="-0.1365" relative="1" as="geometry">
            <mxPoint as="offset" />
          </mxGeometry>
        </mxCell>
        <mxCell id="-FApzdVmVs2hX3Sz02v6-3" value="App Opened" style="html=1;align=center;verticalAlign=top;rounded=1;absoluteArcSize=1;arcSize=10;dashed=0;whiteSpace=wrap;" vertex="1" parent="1">
          <mxGeometry x="380" y="270" width="86" height="30" as="geometry" />
        </mxCell>
        <mxCell id="-FApzdVmVs2hX3Sz02v6-14" style="edgeStyle=orthogonalEdgeStyle;rounded=0;orthogonalLoop=1;jettySize=auto;html=1;exitX=0.5;exitY=1;exitDx=0;exitDy=0;entryX=0.5;entryY=0;entryDx=0;entryDy=0;" edge="1" parent="1" source="-FApzdVmVs2hX3Sz02v6-4" target="-FApzdVmVs2hX3Sz02v6-13">
          <mxGeometry relative="1" as="geometry" />
        </mxCell>
        <mxCell id="-FApzdVmVs2hX3Sz02v6-15" value="Views Fare Options" style="edgeLabel;html=1;align=center;verticalAlign=middle;resizable=0;points=[];" vertex="1" connectable="0" parent="-FApzdVmVs2hX3Sz02v6-14">
          <mxGeometry x="-0.4343" relative="1" as="geometry">
            <mxPoint as="offset" />
          </mxGeometry>
        </mxCell>
        <mxCell id="-FApzdVmVs2hX3Sz02v6-4" value="Payment Section" style="html=1;align=center;verticalAlign=top;rounded=1;absoluteArcSize=1;arcSize=10;dashed=0;whiteSpace=wrap;" vertex="1" parent="1">
          <mxGeometry x="375" y="370" width="96" height="30" as="geometry" />
        </mxCell>
        <mxCell id="-FApzdVmVs2hX3Sz02v6-31" style="edgeStyle=orthogonalEdgeStyle;rounded=0;orthogonalLoop=1;jettySize=auto;html=1;exitX=0.5;exitY=1;exitDx=0;exitDy=0;entryX=1;entryY=0.5;entryDx=0;entryDy=0;" edge="1" parent="1" source="-FApzdVmVs2hX3Sz02v6-5" target="-FApzdVmVs2hX3Sz02v6-22">
          <mxGeometry relative="1" as="geometry" />
        </mxCell>
        <mxCell id="-FApzdVmVs2hX3Sz02v6-32" value="Complete Purchase" style="edgeLabel;html=1;align=center;verticalAlign=middle;resizable=0;points=[];" vertex="1" connectable="0" parent="-FApzdVmVs2hX3Sz02v6-31">
          <mxGeometry x="-0.2999" y="2" relative="1" as="geometry">
            <mxPoint as="offset" />
          </mxGeometry>
        </mxCell>
        <mxCell id="-FApzdVmVs2hX3Sz02v6-5" value="Alternative Purchase" style="html=1;align=center;verticalAlign=top;rounded=1;absoluteArcSize=1;arcSize=10;dashed=0;whiteSpace=wrap;" vertex="1" parent="1">
          <mxGeometry x="590" y="265" width="110" height="40" as="geometry" />
        </mxCell>
        <mxCell id="-FApzdVmVs2hX3Sz02v6-7" style="edgeStyle=orthogonalEdgeStyle;rounded=0;orthogonalLoop=1;jettySize=auto;html=1;exitX=0.5;exitY=1;exitDx=0;exitDy=0;entryX=0.405;entryY=0.149;entryDx=0;entryDy=0;entryPerimeter=0;" edge="1" parent="1" source="-FApzdVmVs2hX3Sz02v6-2" target="-FApzdVmVs2hX3Sz02v6-3">
          <mxGeometry relative="1" as="geometry" />
        </mxCell>
        <mxCell id="-FApzdVmVs2hX3Sz02v6-8" value="Opens app" style="edgeLabel;html=1;align=center;verticalAlign=middle;resizable=0;points=[];" vertex="1" connectable="0" parent="-FApzdVmVs2hX3Sz02v6-7">
          <mxGeometry x="-0.0733" relative="1" as="geometry">
            <mxPoint as="offset" />
          </mxGeometry>
        </mxCell>
        <mxCell id="-FApzdVmVs2hX3Sz02v6-17" style="edgeStyle=orthogonalEdgeStyle;rounded=0;orthogonalLoop=1;jettySize=auto;html=1;exitX=0.5;exitY=1;exitDx=0;exitDy=0;entryX=0.5;entryY=0;entryDx=0;entryDy=0;" edge="1" parent="1" source="-FApzdVmVs2hX3Sz02v6-13" target="-FApzdVmVs2hX3Sz02v6-16">
          <mxGeometry relative="1" as="geometry" />
        </mxCell>
        <mxCell id="-FApzdVmVs2hX3Sz02v6-18" value="Compares Costs" style="edgeLabel;html=1;align=center;verticalAlign=middle;resizable=0;points=[];" vertex="1" connectable="0" parent="-FApzdVmVs2hX3Sz02v6-17">
          <mxGeometry x="-0.0519" relative="1" as="geometry">
            <mxPoint as="offset" />
          </mxGeometry>
        </mxCell>
        <mxCell id="-FApzdVmVs2hX3Sz02v6-13" value="Reviewing Options" style="html=1;align=center;verticalAlign=top;rounded=1;absoluteArcSize=1;arcSize=10;dashed=0;whiteSpace=wrap;" vertex="1" parent="1">
          <mxGeometry x="375" y="470" width="110" height="30" as="geometry" />
        </mxCell>
        <mxCell id="-FApzdVmVs2hX3Sz02v6-16" value="Pass Selection" style="html=1;align=center;verticalAlign=top;rounded=1;absoluteArcSize=1;arcSize=10;dashed=0;whiteSpace=wrap;" vertex="1" parent="1">
          <mxGeometry x="385" y="560" width="90" height="25" as="geometry" />
        </mxCell>
        <mxCell id="-FApzdVmVs2hX3Sz02v6-23" style="edgeStyle=orthogonalEdgeStyle;rounded=0;orthogonalLoop=1;jettySize=auto;html=1;exitX=0.5;exitY=1;exitDx=0;exitDy=0;entryX=0.5;entryY=0;entryDx=0;entryDy=0;" edge="1" parent="1" source="-FApzdVmVs2hX3Sz02v6-19" target="-FApzdVmVs2hX3Sz02v6-22">
          <mxGeometry relative="1" as="geometry" />
        </mxCell>
        <mxCell id="-FApzdVmVs2hX3Sz02v6-24" value="Payment Successful" style="edgeLabel;html=1;align=center;verticalAlign=middle;resizable=0;points=[];" vertex="1" connectable="0" parent="-FApzdVmVs2hX3Sz02v6-23">
          <mxGeometry x="-0.1556" y="-2" relative="1" as="geometry">
            <mxPoint as="offset" />
          </mxGeometry>
        </mxCell>
        <mxCell id="-FApzdVmVs2hX3Sz02v6-19" value="Payment Processing" style="html=1;align=center;verticalAlign=top;rounded=1;absoluteArcSize=1;arcSize=10;dashed=0;whiteSpace=wrap;" vertex="1" parent="1">
          <mxGeometry x="380" y="650" width="120" height="30" as="geometry" />
        </mxCell>
        <mxCell id="-FApzdVmVs2hX3Sz02v6-20" style="edgeStyle=orthogonalEdgeStyle;rounded=0;orthogonalLoop=1;jettySize=auto;html=1;exitX=0.5;exitY=1;exitDx=0;exitDy=0;entryX=0.418;entryY=-0.17;entryDx=0;entryDy=0;entryPerimeter=0;" edge="1" parent="1" source="-FApzdVmVs2hX3Sz02v6-16" target="-FApzdVmVs2hX3Sz02v6-19">
          <mxGeometry relative="1" as="geometry" />
        </mxCell>
        <mxCell id="-FApzdVmVs2hX3Sz02v6-21" value="Selects Week Pass" style="edgeLabel;html=1;align=center;verticalAlign=middle;resizable=0;points=[];" vertex="1" connectable="0" parent="-FApzdVmVs2hX3Sz02v6-20">
          <mxGeometry x="-0.1462" y="1" relative="1" as="geometry">
            <mxPoint y="2" as="offset" />
          </mxGeometry>
        </mxCell>
        <mxCell id="-FApzdVmVs2hX3Sz02v6-26" style="edgeStyle=orthogonalEdgeStyle;rounded=0;orthogonalLoop=1;jettySize=auto;html=1;exitX=0.5;exitY=1;exitDx=0;exitDy=0;entryX=0.5;entryY=0;entryDx=0;entryDy=0;" edge="1" parent="1" source="-FApzdVmVs2hX3Sz02v6-22" target="-FApzdVmVs2hX3Sz02v6-25">
          <mxGeometry relative="1" as="geometry" />
        </mxCell>
        <mxCell id="-FApzdVmVs2hX3Sz02v6-27" value="Stores Digital Pass" style="edgeLabel;html=1;align=center;verticalAlign=middle;resizable=0;points=[];" vertex="1" connectable="0" parent="-FApzdVmVs2hX3Sz02v6-26">
          <mxGeometry x="-0.1193" y="1" relative="1" as="geometry">
            <mxPoint as="offset" />
          </mxGeometry>
        </mxCell>
        <mxCell id="-FApzdVmVs2hX3Sz02v6-22" value="Pass Activated" style="html=1;align=center;verticalAlign=top;rounded=1;absoluteArcSize=1;arcSize=10;dashed=0;whiteSpace=wrap;" vertex="1" parent="1">
          <mxGeometry x="390" y="760" width="100" height="30" as="geometry" />
        </mxCell>
        <mxCell id="-FApzdVmVs2hX3Sz02v6-33" style="edgeStyle=orthogonalEdgeStyle;rounded=0;orthogonalLoop=1;jettySize=auto;html=1;exitX=0.5;exitY=1;exitDx=0;exitDy=0;entryX=0.5;entryY=0;entryDx=0;entryDy=0;" edge="1" parent="1" source="-FApzdVmVs2hX3Sz02v6-25" target="-FApzdVmVs2hX3Sz02v6-30">
          <mxGeometry relative="1" as="geometry" />
        </mxCell>
        <mxCell id="-FApzdVmVs2hX3Sz02v6-40" value="Requests Receipt" style="edgeLabel;html=1;align=center;verticalAlign=middle;resizable=0;points=[];" vertex="1" connectable="0" parent="-FApzdVmVs2hX3Sz02v6-33">
          <mxGeometry x="0.3948" y="-1" relative="1" as="geometry">
            <mxPoint as="offset" />
          </mxGeometry>
        </mxCell>
        <mxCell id="-FApzdVmVs2hX3Sz02v6-35" style="edgeStyle=orthogonalEdgeStyle;rounded=0;orthogonalLoop=1;jettySize=auto;html=1;exitX=1;exitY=0.5;exitDx=0;exitDy=0;entryX=0.5;entryY=0;entryDx=0;entryDy=0;" edge="1" parent="1" source="-FApzdVmVs2hX3Sz02v6-25" target="-FApzdVmVs2hX3Sz02v6-29">
          <mxGeometry relative="1" as="geometry" />
        </mxCell>
        <mxCell id="-FApzdVmVs2hX3Sz02v6-43" value="Uses for Validation" style="edgeLabel;html=1;align=center;verticalAlign=middle;resizable=0;points=[];" vertex="1" connectable="0" parent="-FApzdVmVs2hX3Sz02v6-35">
          <mxGeometry x="0.4249" y="-1" relative="1" as="geometry">
            <mxPoint as="offset" />
          </mxGeometry>
        </mxCell>
        <mxCell id="-FApzdVmVs2hX3Sz02v6-25" value="Pass Managment" style="html=1;align=center;verticalAlign=top;rounded=1;absoluteArcSize=1;arcSize=10;dashed=0;whiteSpace=wrap;" vertex="1" parent="1">
          <mxGeometry x="391" y="850" width="99" height="30" as="geometry" />
        </mxCell>
        <mxCell id="-FApzdVmVs2hX3Sz02v6-36" style="edgeStyle=orthogonalEdgeStyle;rounded=0;orthogonalLoop=1;jettySize=auto;html=1;exitX=0.25;exitY=0;exitDx=0;exitDy=0;entryX=0;entryY=0.25;entryDx=0;entryDy=0;" edge="1" parent="1" source="-FApzdVmVs2hX3Sz02v6-28" target="-FApzdVmVs2hX3Sz02v6-25">
          <mxGeometry relative="1" as="geometry" />
        </mxCell>
        <mxCell id="-FApzdVmVs2hX3Sz02v6-42" value="Confirms Extension" style="edgeLabel;html=1;align=center;verticalAlign=middle;resizable=0;points=[];" vertex="1" connectable="0" parent="-FApzdVmVs2hX3Sz02v6-36">
          <mxGeometry x="0.2052" y="-1" relative="1" as="geometry">
            <mxPoint as="offset" />
          </mxGeometry>
        </mxCell>
        <mxCell id="-FApzdVmVs2hX3Sz02v6-28" value="Pass Extension" style="html=1;align=center;verticalAlign=top;rounded=1;absoluteArcSize=1;arcSize=10;dashed=0;whiteSpace=wrap;" vertex="1" parent="1">
          <mxGeometry x="276" y="920" width="99" height="30" as="geometry" />
        </mxCell>
        <mxCell id="-FApzdVmVs2hX3Sz02v6-37" style="edgeStyle=orthogonalEdgeStyle;rounded=0;orthogonalLoop=1;jettySize=auto;html=1;exitX=1;exitY=0.5;exitDx=0;exitDy=0;entryX=1;entryY=0.25;entryDx=0;entryDy=0;" edge="1" parent="1" source="-FApzdVmVs2hX3Sz02v6-29" target="-FApzdVmVs2hX3Sz02v6-25">
          <mxGeometry relative="1" as="geometry" />
        </mxCell>
        <mxCell id="-FApzdVmVs2hX3Sz02v6-29" value="Pass Validation" style="html=1;align=center;verticalAlign=top;rounded=1;absoluteArcSize=1;arcSize=10;dashed=0;whiteSpace=wrap;" vertex="1" parent="1">
          <mxGeometry x="520" y="920" width="105" height="30" as="geometry" />
        </mxCell>
        <mxCell id="-FApzdVmVs2hX3Sz02v6-39" style="edgeStyle=orthogonalEdgeStyle;rounded=0;orthogonalLoop=1;jettySize=auto;html=1;exitX=0.5;exitY=1;exitDx=0;exitDy=0;entryX=0.5;entryY=0;entryDx=0;entryDy=0;" edge="1" parent="1" source="-FApzdVmVs2hX3Sz02v6-30" target="-FApzdVmVs2hX3Sz02v6-38">
          <mxGeometry relative="1" as="geometry" />
        </mxCell>
        <mxCell id="-FApzdVmVs2hX3Sz02v6-30" value="Receipt generation" style="html=1;align=center;verticalAlign=top;rounded=1;absoluteArcSize=1;arcSize=10;dashed=0;whiteSpace=wrap;" vertex="1" parent="1">
          <mxGeometry x="391" y="970" width="107" height="30" as="geometry" />
        </mxCell>
        <mxCell id="-FApzdVmVs2hX3Sz02v6-34" style="edgeStyle=orthogonalEdgeStyle;rounded=0;orthogonalLoop=1;jettySize=auto;html=1;exitX=0;exitY=0.75;exitDx=0;exitDy=0;entryX=0.614;entryY=-0.104;entryDx=0;entryDy=0;entryPerimeter=0;" edge="1" parent="1" source="-FApzdVmVs2hX3Sz02v6-25" target="-FApzdVmVs2hX3Sz02v6-28">
          <mxGeometry relative="1" as="geometry" />
        </mxCell>
        <mxCell id="-FApzdVmVs2hX3Sz02v6-41" value="Extends Duration" style="edgeLabel;html=1;align=center;verticalAlign=middle;resizable=0;points=[];" vertex="1" connectable="0" parent="-FApzdVmVs2hX3Sz02v6-34">
          <mxGeometry x="0.4409" relative="1" as="geometry">
            <mxPoint as="offset" />
          </mxGeometry>
        </mxCell>
        <mxCell id="-FApzdVmVs2hX3Sz02v6-38" value="" style="ellipse;html=1;shape=endState;fillColor=strokeColor;" vertex="1" parent="1">
          <mxGeometry x="430" y="1050" width="30" height="30" as="geometry" />
        </mxCell>
      </root>
    </mxGraphModel>
  </diagram>
</mxfile>
